<?xml version="1.0" encoding="UTF-8" standalone="no"?>
<!DOCTYPE svg PUBLIC "-//W3C//DTD SVG 1.1//EN" "http://www.w3.org/Graphics/SVG/1.1/DTD/svg11.dtd">
<svg width="100%" height="100%" viewBox="0 0 1000 1000" version="1.1" xmlns="http://www.w3.org/2000/svg" xmlns:xlink="http://www.w3.org/1999/xlink" xml:space="preserve" xmlns:serif="http://www.serif.com/" style="fill-rule:evenodd;clip-rule:evenodd;stroke-linejoin:round;stroke-miterlimit:1.41421;">
    <path d="M836.8,467.2C837,461.4 837.1,456.1 837.1,451.9C837.1,382.1 809.9,316.5 760.6,267.1C711.2,217.7 645.6,190.6 575.8,190.6C521.7,190.6 468.5,209 422,243.8C390.2,267.6 363.5,297.9 344.3,331.5C323.2,320.5 299.8,314.8 275.6,314.8C236.8,314.8 199.5,332.8 170.6,365.5C151.3,387.3 137.6,413.8 130.9,441.4C98.2,454.3 69,476.5 47.9,504.9C23.1,538 10,577.4 10,618.8C10,723.9 95.5,809.4 200.6,809.4L200.6,808.9L819,808.9L819,809.2C913.3,809.2 990,732.5 990,638.2C990,550.2 922.4,476.7 836.8,467.2ZM825.8,769.4L188.9,769.3C111.1,763.3 49.6,698.1 49.6,618.7C49.6,553.2 90.9,495.1 152.8,474.4C153,474.3 153.2,474.2 153.4,474.1C159.5,472.4 164.3,467.3 165.4,460.7C174.2,407.8 220.1,354.3 275.5,354.3C298.2,354.3 319.9,361.2 338.4,374.2C340.2,375.9 342.4,377.3 345,378.2C354.7,381.8 365.5,377.3 369.8,367.9C407.4,287 491.3,230 575.8,230C698.1,230 797.5,329.5 797.5,451.7C797.5,460 797.1,473 796.3,484.4C795.6,494.6 802.7,503.6 812.8,505.3C814.6,505.6 816.3,505.6 818,505.5L818,505.6C890.5,505.6 950.4,565.5 950.4,638C950.4,708.4 895.1,765.9 825.8,769.4Z" style="fill:white;fill-rule:nonzero;"/>
</svg>
